<?xml version="1.0" encoding="utf-8"?>
<!-- Generator: Adobe Illustrator 24.3.0, SVG Export Plug-In . SVG Version: 6.00 Build 0)  -->
<svg version="1.1" id="Layer_1" xmlns="http://www.w3.org/2000/svg" xmlns:xlink="http://www.w3.org/1999/xlink" x="0px" y="0px"
	 viewBox="0 0 500 500" style="enable-background:new 0 0 500 500;" xml:space="preserve">
<style type="text/css">
	.st0{fill:#CEC1A3;}
	.st1{fill:#AC8746;}
	.st2{fill:#F2EBDD;}
	.st3{opacity:0.3;fill:#CEC1A3;enable-background:new    ;}
	.st4{opacity:0.4;fill:#AC8746;enable-background:new    ;}
	.st5{fill:none;stroke:#F2EBDD;stroke-width:2;stroke-linecap:round;stroke-miterlimit:10;}
	.st6{fill:#083555;}
	.st7{font-family:'Poppins-Bold';}
	.st8{font-size:34.3718px;}
	.st9{fill:#1B7C9E;}
	.st10{font-family:'Poppins-Regular';}
	.st11{font-size:13.9834px;}
</style>
<g id="OBJECTS">
	<g>
		<polygon class="st0" points="218.2,220.8 247.5,171.1 232.2,149.1 177,173.3 159.5,227.8 183.8,252 198.9,216.5 213.3,279.3 
			248.3,249.6 		"/>
		<polygon class="st1" points="267.8,149.1 323,173.3 340.5,227.8 316.2,252 301.1,216.5 286.7,279.3 217.8,221 		"/>
		<path class="st2" d="M234.5,218.7c0,2.8-2.2,5-5,5s-5-2.2-5-5c0-2.8,2.2-5,5-5S234.5,216,234.5,218.7z"/>
		<polygon class="st3" points="198.9,216.5 177,173.3 159.5,227.8 		"/>
		<polygon class="st4" points="301.1,216.5 323,173.3 340.5,227.8 		"/>
		<line class="st5" x1="229.5" y1="218.7" x2="288.6" y2="218.7"/>
	</g>
</g>
<g id="TEXTS">
	<text transform="matrix(1 0 0 1 149.3584 319.9622)" class="st6 st7 st8">CLOTHING</text>
	<text transform="matrix(1 0 0 1 183.1938 342.9105)" class="st9 st10 st11">YOUR STORE</text>
</g>
</svg>
